<svg xmlns="http://www.w3.org/2000/svg" xmlns:xlink="http://www.w3.org/1999/xlink" width="70" zoomAndPan="magnify" viewBox="0 0 52.5 52.499999" height="70" preserveAspectRatio="xMidYMid meet" version="1.0"><defs><clipPath id="id1"><path d="M 7.453125 7.453125 L 44.953125 7.453125 L 44.953125 32.980469 L 7.453125 32.980469 Z M 7.453125 7.453125 " clip-rule="nonzero"/></clipPath><clipPath id="id2"><path d="M 10.4375 20.632812 L 42 20.632812 L 42 44.953125 L 10.4375 44.953125 Z M 10.4375 20.632812 " clip-rule="nonzero"/></clipPath></defs><path fill="rgb(100%, 100%, 100%)" d="M 26.203125 7.453125 C 15.847656 7.453125 7.453125 15.847656 7.453125 26.203125 C 7.453125 36.558594 15.847656 44.953125 26.203125 44.953125 C 36.558594 44.953125 44.953125 36.558594 44.953125 26.203125 C 44.953125 15.847656 36.558594 7.453125 26.203125 7.453125 " fill-opacity="1" fill-rule="nonzero"/><g clip-path="url(#id1)"><path fill="rgb(16.079712%, 67.059326%, 88.62915%)" d="M 26.203125 15.464844 L 43.695312 32.957031 C 44.507812 30.863281 44.949219 28.585938 44.949219 26.203125 C 44.949219 15.847656 36.558594 7.453125 26.203125 7.453125 C 15.847656 7.453125 7.453125 15.847656 7.453125 26.203125 C 7.453125 28.585938 7.898438 30.863281 8.710938 32.957031 L 26.203125 15.464844 " fill-opacity="1" fill-rule="nonzero"/></g><g clip-path="url(#id2)"><path fill="rgb(0%, 44.309998%, 73.728943%)" d="M 26.203125 23.199219 L 13.785156 34.171875 L 26.203125 21.824219 L 38.621094 34.171875 Z M 29.128906 30.378906 L 26.851562 30.378906 L 26.851562 28.105469 L 29.128906 28.105469 Z M 29.128906 33.953125 L 26.851562 33.953125 L 26.851562 31.679688 L 29.128906 31.679688 Z M 25.550781 30.378906 L 23.277344 30.378906 L 23.277344 28.105469 L 25.550781 28.105469 Z M 25.550781 33.953125 L 23.277344 33.953125 L 23.277344 31.679688 L 25.550781 31.679688 Z M 26.203125 20.632812 L 10.457031 36.382812 C 13.796875 41.539062 19.601562 44.953125 26.203125 44.953125 C 32.804688 44.953125 38.609375 41.539062 41.949219 36.382812 L 26.203125 20.632812 " fill-opacity="1" fill-rule="nonzero"/></g></svg>