<svg xmlns="http://www.w3.org/2000/svg" xmlns:xlink="http://www.w3.org/1999/xlink" width="450" zoomAndPan="magnify" viewBox="0 0 337.5 149.999998" height="200" preserveAspectRatio="xMidYMid meet" version="1.0"><defs><g/><clipPath id="id1"><path d="M 0 0.109375 L 337 0.109375 L 337 149.886719 L 0 149.886719 Z M 0 0.109375 " clip-rule="nonzero"/></clipPath><clipPath id="id2"><path d="M 41.605469 34.945312 L 122.03125 34.945312 L 122.03125 89.691406 L 41.605469 89.691406 Z M 41.605469 34.945312 " clip-rule="nonzero"/></clipPath><clipPath id="id3"><path d="M 48.003906 63.207031 L 115.726562 63.207031 L 115.726562 115.371094 L 48.003906 115.371094 Z M 48.003906 63.207031 " clip-rule="nonzero"/></clipPath></defs><g clip-path="url(#id1)"><path fill="rgb(100%, 100%, 100%)" d="M 0 0.109375 L 337.5 0.109375 L 337.5 157.609375 L 0 157.609375 Z M 0 0.109375 " fill-opacity="1" fill-rule="nonzero"/><path fill="rgb(100%, 100%, 100%)" d="M 0 0.109375 L 337.5 0.109375 L 337.5 150.109375 L 0 150.109375 Z M 0 0.109375 " fill-opacity="1" fill-rule="nonzero"/><path fill="rgb(100%, 100%, 100%)" d="M 0 0.109375 L 337.5 0.109375 L 337.5 150.109375 L 0 150.109375 Z M 0 0.109375 " fill-opacity="1" fill-rule="nonzero"/></g><g clip-path="url(#id2)"><path fill="rgb(16.079712%, 67.059326%, 88.62915%)" d="M 81.816406 52.125 L 119.339844 89.644531 C 121.074219 85.148438 122.03125 80.265625 122.03125 75.160156 C 122.03125 52.949219 104.027344 34.945312 81.816406 34.945312 C 59.609375 34.945312 41.605469 52.949219 41.605469 75.160156 C 41.605469 80.265625 42.5625 85.148438 44.296875 89.644531 L 81.816406 52.125 " fill-opacity="1" fill-rule="nonzero"/></g><g clip-path="url(#id3)"><path fill="rgb(0%, 44.309998%, 73.728943%)" d="M 81.816406 68.714844 L 55.183594 92.25 L 81.816406 65.769531 L 108.449219 92.25 Z M 88.09375 84.113281 L 83.210938 84.113281 L 83.210938 79.234375 L 88.09375 79.234375 Z M 88.09375 91.785156 L 83.210938 91.785156 L 83.210938 86.902344 L 88.09375 86.902344 Z M 80.421875 84.113281 L 75.542969 84.113281 L 75.542969 79.234375 L 80.421875 79.234375 Z M 80.421875 91.785156 L 75.542969 91.785156 L 75.542969 86.902344 L 80.421875 86.902344 Z M 81.816406 63.214844 L 48.042969 96.988281 C 55.207031 108.050781 67.65625 115.371094 81.816406 115.371094 C 95.976562 115.371094 108.425781 108.050781 115.589844 96.988281 L 81.816406 63.214844 " fill-opacity="1" fill-rule="nonzero"/></g><g fill="rgb(28.239441%, 73.329163%, 97.648621%)" fill-opacity="1"><g transform="translate(137.888548, 83.86751)"><g><path d="M 19.621094 -14.3125 C 19.621094 -17.378906 17.125 -19.878906 14.085938 -19.878906 L 2.328125 -19.878906 L 2.328125 0.0273438 L 14.085938 0.0273438 C 17.125 0.0273438 19.621094 -2.46875 19.621094 -5.539062 C 19.621094 -7.328125 18.769531 -8.917969 17.464844 -9.910156 C 18.769531 -10.933594 19.621094 -12.523438 19.621094 -14.3125 Z M 17.292969 -5.539062 C 17.292969 -3.75 15.84375 -2.300781 14.085938 -2.300781 L 4.628906 -2.300781 L 4.628906 -8.773438 L 14.085938 -8.773438 C 15.84375 -8.773438 17.292969 -7.328125 17.292969 -5.539062 Z M 4.628906 -17.550781 L 14.085938 -17.550781 C 15.84375 -17.550781 17.292969 -16.101562 17.292969 -14.3125 C 17.292969 -12.523438 15.84375 -11.074219 14.085938 -11.074219 L 4.628906 -11.074219 Z M 4.628906 -17.550781 "/></g></g></g><g fill="rgb(28.239441%, 73.329163%, 97.648621%)" fill-opacity="1"><g transform="translate(159.974296, 83.86751)"><g><path d="M 4.601562 -5.367188 L 2.328125 0.0273438 L 4.828125 0.0273438 L 6.53125 -3.976562 L 16.582031 -3.976562 L 18.289062 0.0273438 L 20.816406 0.0273438 L 18.515625 -5.367188 L 18.117188 -6.304688 L 12.324219 -19.878906 L 10.789062 -19.878906 L 4.996094 -6.304688 Z M 11.558594 -15.761719 L 15.589844 -6.304688 L 7.523438 -6.304688 Z M 11.558594 -15.761719 "/></g></g></g><g fill="rgb(28.239441%, 73.329163%, 97.648621%)" fill-opacity="1"><g transform="translate(183.223946, 83.86751)"><g><path d="M 4.628906 0.0273438 L 4.628906 -19.878906 L 2.328125 -19.878906 L 2.328125 0.0273438 Z M 4.628906 0.0273438 "/></g></g></g><g fill="rgb(28.239441%, 73.329163%, 97.648621%)" fill-opacity="1"><g transform="translate(190.292517, 83.86751)"><g><path d="M 19.621094 -14.3125 C 19.621094 -17.378906 17.125 -19.878906 14.085938 -19.878906 L 2.328125 -19.878906 L 2.328125 0.0273438 L 4.628906 0.0273438 L 4.628906 -8.773438 L 10.421875 -8.773438 L 17.945312 0.0273438 L 20.984375 0.0273438 L 13.488281 -8.773438 L 14.085938 -8.773438 C 17.125 -8.773438 19.621094 -11.246094 19.621094 -14.3125 Z M 4.628906 -11.074219 L 4.628906 -17.550781 L 14.085938 -17.550781 C 15.84375 -17.550781 17.292969 -16.101562 17.292969 -14.3125 C 17.292969 -12.523438 15.84375 -11.074219 14.085938 -11.074219 Z M 4.628906 -11.074219 "/></g></g></g><g fill="rgb(28.239441%, 73.329163%, 97.648621%)" fill-opacity="1"><g transform="translate(213.684105, 83.86751)"><g><path d="M 19.621094 -14.3125 C 19.621094 -17.378906 17.125 -19.878906 14.085938 -19.878906 L 2.328125 -19.878906 L 2.328125 0.0273438 L 14.085938 0.0273438 C 17.125 0.0273438 19.621094 -2.46875 19.621094 -5.539062 C 19.621094 -7.328125 18.769531 -8.917969 17.464844 -9.910156 C 18.769531 -10.933594 19.621094 -12.523438 19.621094 -14.3125 Z M 17.292969 -5.539062 C 17.292969 -3.75 15.84375 -2.300781 14.085938 -2.300781 L 4.628906 -2.300781 L 4.628906 -8.773438 L 14.085938 -8.773438 C 15.84375 -8.773438 17.292969 -7.328125 17.292969 -5.539062 Z M 4.628906 -17.550781 L 14.085938 -17.550781 C 15.84375 -17.550781 17.292969 -16.101562 17.292969 -14.3125 C 17.292969 -12.523438 15.84375 -11.074219 14.085938 -11.074219 L 4.628906 -11.074219 Z M 4.628906 -17.550781 "/></g></g></g><g fill="rgb(28.239441%, 73.329163%, 97.648621%)" fill-opacity="1"><g transform="translate(235.769853, 83.86751)"><g><path d="M 17.292969 -4.289062 L 4.003906 -19.878906 L 2.328125 -19.878906 L 2.328125 0.0273438 L 4.628906 0.0273438 L 4.628906 -15.5625 L 17.917969 0.0273438 L 19.621094 0.0273438 L 19.621094 -19.878906 L 17.292969 -19.878906 Z M 17.292969 -4.289062 "/></g></g></g><g fill="rgb(28.239441%, 73.329163%, 97.648621%)" fill-opacity="1"><g transform="translate(257.8556, 83.86751)"><g><path d="M 19.621094 -14.3125 C 19.621094 -17.378906 17.125 -19.878906 14.085938 -19.878906 L 2.328125 -19.878906 L 2.328125 0.0273438 L 14.085938 0.0273438 C 17.125 0.0273438 19.621094 -2.46875 19.621094 -5.539062 C 19.621094 -7.328125 18.769531 -8.917969 17.464844 -9.910156 C 18.769531 -10.933594 19.621094 -12.523438 19.621094 -14.3125 Z M 17.292969 -5.539062 C 17.292969 -3.75 15.84375 -2.300781 14.085938 -2.300781 L 4.628906 -2.300781 L 4.628906 -8.773438 L 14.085938 -8.773438 C 15.84375 -8.773438 17.292969 -7.328125 17.292969 -5.539062 Z M 4.628906 -17.550781 L 14.085938 -17.550781 C 15.84375 -17.550781 17.292969 -16.101562 17.292969 -14.3125 C 17.292969 -12.523438 15.84375 -11.074219 14.085938 -11.074219 L 4.628906 -11.074219 Z M 4.628906 -17.550781 "/></g></g></g></svg>